<mxfile host="Electron" modified="2024-04-20T16:40:47.316Z" agent="Mozilla/5.0 (Windows NT 10.0; Win64; x64) AppleWebKit/537.36 (KHTML, like Gecko) draw.io/24.2.5 Chrome/120.0.6099.109 Electron/28.1.0 Safari/537.36" etag="HF9dSB5l42fs5Mf3TsGW" version="24.2.5" type="device">
  <diagram name="Page-1" id="z8y1naZXQuuF6EIDvwK8">
    <mxGraphModel dx="1509" dy="899" grid="1" gridSize="10" guides="1" tooltips="1" connect="1" arrows="1" fold="1" page="1" pageScale="1" pageWidth="3300" pageHeight="2339" math="0" shadow="0">
      <root>
        <mxCell id="0" />
        <mxCell id="1" parent="0" />
        <mxCell id="D95QP3MlJxtuGS18Q3mf-48" value="&lt;p style=&quot;margin-top: 0pt; margin-bottom: 0pt; margin-left: 0in; direction: ltr; unicode-bidi: embed; font-size: 12px;&quot;&gt;&lt;span style=&quot;font-size: 12px;&quot;&gt;Main&lt;/span&gt;&lt;/p&gt;" style="rounded=0;whiteSpace=wrap;html=1;fontFamily=Consolas;fontSize=12;verticalAlign=top;align=left;opacity=30;fillColor=#cdeb8b;strokeColor=#36393d;" vertex="1" parent="1">
          <mxGeometry x="120" y="1040" width="2820" height="270" as="geometry" />
        </mxCell>
        <mxCell id="D95QP3MlJxtuGS18Q3mf-47" value="&lt;p style=&quot;margin-top: 0pt; margin-bottom: 0pt; margin-left: 0in; direction: ltr; unicode-bidi: embed; font-size: 12px;&quot;&gt;&lt;span style=&quot;font-size: 12px;&quot;&gt;Application Layer&lt;/span&gt;&lt;/p&gt;" style="rounded=0;whiteSpace=wrap;html=1;fontFamily=Consolas;fontSize=12;verticalAlign=top;align=left;opacity=30;fillColor=#ffe6cc;strokeColor=#d79b00;" vertex="1" parent="1">
          <mxGeometry x="120" y="600" width="2820" height="440" as="geometry" />
        </mxCell>
        <mxCell id="D95QP3MlJxtuGS18Q3mf-46" value="&lt;p style=&quot;margin-top: 0pt; margin-bottom: 0pt; margin-left: 0in; direction: ltr; unicode-bidi: embed; font-size: 12px;&quot;&gt;&lt;span style=&quot;font-size: 12px;&quot;&gt;Kalman&lt;/span&gt;&lt;/p&gt;" style="rounded=0;whiteSpace=wrap;html=1;fontFamily=Consolas;fontSize=12;verticalAlign=top;align=left;opacity=30;fillColor=#dae8fc;strokeColor=#6c8ebf;" vertex="1" parent="1">
          <mxGeometry x="120" y="400" width="2820" height="200" as="geometry" />
        </mxCell>
        <mxCell id="D95QP3MlJxtuGS18Q3mf-44" value="&lt;p style=&quot;margin-top: 0pt; margin-bottom: 0pt; margin-left: 0in; direction: ltr; unicode-bidi: embed; font-size: 12px;&quot;&gt;&lt;span style=&quot;font-size: 12px;&quot;&gt;Presentation Layer&lt;/span&gt;&lt;/p&gt;" style="rounded=0;whiteSpace=wrap;html=1;fontFamily=Consolas;fontSize=12;verticalAlign=top;align=left;opacity=30;fillColor=#f8cecc;strokeColor=#b85450;" vertex="1" parent="1">
          <mxGeometry x="2040" y="60" width="900" height="340" as="geometry" />
        </mxCell>
        <mxCell id="D95QP3MlJxtuGS18Q3mf-45" value="&lt;p style=&quot;margin-top: 0pt; margin-bottom: 0pt; margin-left: 0in; direction: ltr; unicode-bidi: embed; font-size: 12px;&quot;&gt;&lt;span style=&quot;font-size: 12px;&quot;&gt;Vector and Quaternion math&lt;/span&gt;&lt;/p&gt;" style="rounded=0;whiteSpace=wrap;html=1;fontFamily=Consolas;fontSize=12;verticalAlign=top;align=left;opacity=30;fillColor=#f5f5f5;strokeColor=#666666;fontColor=#333333;" vertex="1" parent="1">
          <mxGeometry x="120" y="60" width="1920" height="340" as="geometry" />
        </mxCell>
        <mxCell id="D95QP3MlJxtuGS18Q3mf-67" style="edgeStyle=orthogonalEdgeStyle;rounded=0;orthogonalLoop=1;jettySize=auto;html=1;exitX=0.5;exitY=1;exitDx=0;exitDy=0;entryX=0;entryY=0.5;entryDx=0;entryDy=0;" edge="1" parent="1" source="D95QP3MlJxtuGS18Q3mf-4" target="D95QP3MlJxtuGS18Q3mf-42">
          <mxGeometry relative="1" as="geometry" />
        </mxCell>
        <mxCell id="D95QP3MlJxtuGS18Q3mf-68" style="edgeStyle=orthogonalEdgeStyle;rounded=0;orthogonalLoop=1;jettySize=auto;html=1;exitX=0.5;exitY=1;exitDx=0;exitDy=0;entryX=0.25;entryY=0;entryDx=0;entryDy=0;" edge="1" parent="1" source="D95QP3MlJxtuGS18Q3mf-4" target="D95QP3MlJxtuGS18Q3mf-40">
          <mxGeometry relative="1" as="geometry">
            <Array as="points">
              <mxPoint x="510" y="710" />
              <mxPoint x="740" y="710" />
            </Array>
          </mxGeometry>
        </mxCell>
        <mxCell id="D95QP3MlJxtuGS18Q3mf-70" style="edgeStyle=orthogonalEdgeStyle;rounded=0;orthogonalLoop=1;jettySize=auto;html=1;exitX=0.25;exitY=1;exitDx=0;exitDy=0;entryX=0.75;entryY=0;entryDx=0;entryDy=0;" edge="1" parent="1" source="D95QP3MlJxtuGS18Q3mf-4" target="D95QP3MlJxtuGS18Q3mf-41">
          <mxGeometry relative="1" as="geometry" />
        </mxCell>
        <mxCell id="D95QP3MlJxtuGS18Q3mf-71" style="edgeStyle=orthogonalEdgeStyle;rounded=0;orthogonalLoop=1;jettySize=auto;html=1;exitX=0.5;exitY=1;exitDx=0;exitDy=0;entryX=0;entryY=0.5;entryDx=0;entryDy=0;" edge="1" parent="1" source="D95QP3MlJxtuGS18Q3mf-4" target="D95QP3MlJxtuGS18Q3mf-39">
          <mxGeometry relative="1" as="geometry" />
        </mxCell>
        <mxCell id="D95QP3MlJxtuGS18Q3mf-74" style="edgeStyle=orthogonalEdgeStyle;rounded=0;orthogonalLoop=1;jettySize=auto;html=1;exitX=0.75;exitY=1;exitDx=0;exitDy=0;entryX=0;entryY=0.5;entryDx=0;entryDy=0;" edge="1" parent="1" source="D95QP3MlJxtuGS18Q3mf-4" target="D95QP3MlJxtuGS18Q3mf-14">
          <mxGeometry relative="1" as="geometry" />
        </mxCell>
        <mxCell id="D95QP3MlJxtuGS18Q3mf-87" style="edgeStyle=orthogonalEdgeStyle;rounded=0;orthogonalLoop=1;jettySize=auto;html=1;exitX=1;exitY=0.75;exitDx=0;exitDy=0;entryX=0;entryY=0.5;entryDx=0;entryDy=0;" edge="1" parent="1" source="D95QP3MlJxtuGS18Q3mf-4" target="D95QP3MlJxtuGS18Q3mf-85">
          <mxGeometry relative="1" as="geometry">
            <Array as="points">
              <mxPoint x="830" y="310" />
              <mxPoint x="830" y="610" />
              <mxPoint x="1010" y="610" />
              <mxPoint x="1010" y="650" />
            </Array>
          </mxGeometry>
        </mxCell>
        <mxCell id="D95QP3MlJxtuGS18Q3mf-93" style="edgeStyle=orthogonalEdgeStyle;rounded=0;orthogonalLoop=1;jettySize=auto;html=1;exitX=0.5;exitY=1;exitDx=0;exitDy=0;entryX=0;entryY=0.5;entryDx=0;entryDy=0;" edge="1" parent="1" source="D95QP3MlJxtuGS18Q3mf-4" target="D95QP3MlJxtuGS18Q3mf-90">
          <mxGeometry relative="1" as="geometry" />
        </mxCell>
        <mxCell id="D95QP3MlJxtuGS18Q3mf-4" value="C=quat_to_mat(q)" style="rounded=0;whiteSpace=wrap;html=1;fontFamily=Consolas;fillColor=#fff2cc;strokeColor=#d6b656;" vertex="1" parent="1">
          <mxGeometry x="430" y="280" width="160" height="40" as="geometry" />
        </mxCell>
        <mxCell id="D95QP3MlJxtuGS18Q3mf-56" style="edgeStyle=orthogonalEdgeStyle;rounded=0;orthogonalLoop=1;jettySize=auto;html=1;exitX=0.5;exitY=1;exitDx=0;exitDy=0;entryX=0.5;entryY=0;entryDx=0;entryDy=0;" edge="1" parent="1" source="D95QP3MlJxtuGS18Q3mf-5" target="D95QP3MlJxtuGS18Q3mf-39">
          <mxGeometry relative="1" as="geometry" />
        </mxCell>
        <mxCell id="D95QP3MlJxtuGS18Q3mf-57" style="edgeStyle=orthogonalEdgeStyle;rounded=0;orthogonalLoop=1;jettySize=auto;html=1;exitX=1;exitY=0.5;exitDx=0;exitDy=0;entryX=0;entryY=0.25;entryDx=0;entryDy=0;" edge="1" parent="1" source="D95QP3MlJxtuGS18Q3mf-5" target="D95QP3MlJxtuGS18Q3mf-14">
          <mxGeometry relative="1" as="geometry">
            <Array as="points">
              <mxPoint x="940" y="230" />
              <mxPoint x="940" y="460" />
            </Array>
          </mxGeometry>
        </mxCell>
        <mxCell id="D95QP3MlJxtuGS18Q3mf-58" style="edgeStyle=orthogonalEdgeStyle;rounded=0;orthogonalLoop=1;jettySize=auto;html=1;exitX=0;exitY=0.5;exitDx=0;exitDy=0;entryX=0.5;entryY=0;entryDx=0;entryDy=0;" edge="1" parent="1" source="D95QP3MlJxtuGS18Q3mf-5" target="D95QP3MlJxtuGS18Q3mf-41">
          <mxGeometry relative="1" as="geometry" />
        </mxCell>
        <mxCell id="D95QP3MlJxtuGS18Q3mf-77" style="edgeStyle=orthogonalEdgeStyle;rounded=0;orthogonalLoop=1;jettySize=auto;html=1;exitX=0.25;exitY=1;exitDx=0;exitDy=0;entryX=1;entryY=0.5;entryDx=0;entryDy=0;" edge="1" parent="1" source="D95QP3MlJxtuGS18Q3mf-5" target="D95QP3MlJxtuGS18Q3mf-4">
          <mxGeometry relative="1" as="geometry" />
        </mxCell>
        <mxCell id="D95QP3MlJxtuGS18Q3mf-86" style="edgeStyle=orthogonalEdgeStyle;rounded=0;orthogonalLoop=1;jettySize=auto;html=1;exitX=0.75;exitY=1;exitDx=0;exitDy=0;entryX=0.25;entryY=0;entryDx=0;entryDy=0;" edge="1" parent="1" source="D95QP3MlJxtuGS18Q3mf-5" target="D95QP3MlJxtuGS18Q3mf-85">
          <mxGeometry relative="1" as="geometry">
            <Array as="points">
              <mxPoint x="845" y="570" />
              <mxPoint x="1178" y="570" />
              <mxPoint x="1178" y="630" />
            </Array>
          </mxGeometry>
        </mxCell>
        <mxCell id="D95QP3MlJxtuGS18Q3mf-92" style="edgeStyle=orthogonalEdgeStyle;rounded=0;orthogonalLoop=1;jettySize=auto;html=1;exitX=1;exitY=0.25;exitDx=0;exitDy=0;entryX=1;entryY=0.5;entryDx=0;entryDy=0;" edge="1" parent="1" source="D95QP3MlJxtuGS18Q3mf-5" target="D95QP3MlJxtuGS18Q3mf-90">
          <mxGeometry relative="1" as="geometry">
            <Array as="points">
              <mxPoint x="940" y="220" />
              <mxPoint x="940" y="90" />
              <mxPoint x="1973" y="90" />
              <mxPoint x="1973" y="1135" />
            </Array>
          </mxGeometry>
        </mxCell>
        <mxCell id="D95QP3MlJxtuGS18Q3mf-5" value="&lt;p style=&quot;margin-top: 0pt; margin-bottom: 0pt; margin-left: 0in; direction: ltr; unicode-bidi: embed; word-break: normal; font-size: 12px;&quot;&gt;&lt;span style=&quot;font-size: 12px;&quot;&gt;W=cross_mul3(w)&lt;/span&gt;&lt;/p&gt;" style="rounded=0;whiteSpace=wrap;html=1;fontFamily=Consolas;fontSize=12;fillColor=#f5f5f5;fontColor=#333333;strokeColor=#666666;" vertex="1" parent="1">
          <mxGeometry x="740" y="210" width="140" height="40" as="geometry" />
        </mxCell>
        <mxCell id="D95QP3MlJxtuGS18Q3mf-49" style="edgeStyle=orthogonalEdgeStyle;rounded=0;orthogonalLoop=1;jettySize=auto;html=1;exitX=0.5;exitY=0;exitDx=0;exitDy=0;entryX=0.25;entryY=0;entryDx=0;entryDy=0;" edge="1" parent="1" source="D95QP3MlJxtuGS18Q3mf-7" target="D95QP3MlJxtuGS18Q3mf-41">
          <mxGeometry relative="1" as="geometry">
            <Array as="points">
              <mxPoint x="1145" y="210" />
              <mxPoint x="1145" y="180" />
              <mxPoint x="275" y="180" />
            </Array>
          </mxGeometry>
        </mxCell>
        <mxCell id="D95QP3MlJxtuGS18Q3mf-50" style="edgeStyle=orthogonalEdgeStyle;rounded=0;orthogonalLoop=1;jettySize=auto;html=1;exitX=0.75;exitY=1;exitDx=0;exitDy=0;entryX=0.5;entryY=0;entryDx=0;entryDy=0;" edge="1" parent="1" source="D95QP3MlJxtuGS18Q3mf-7" target="D95QP3MlJxtuGS18Q3mf-37">
          <mxGeometry relative="1" as="geometry">
            <Array as="points">
              <mxPoint x="1148" y="380" />
              <mxPoint x="1720" y="380" />
            </Array>
          </mxGeometry>
        </mxCell>
        <mxCell id="D95QP3MlJxtuGS18Q3mf-52" style="edgeStyle=orthogonalEdgeStyle;rounded=0;orthogonalLoop=1;jettySize=auto;html=1;exitX=0.5;exitY=1;exitDx=0;exitDy=0;entryX=0.25;entryY=0;entryDx=0;entryDy=0;" edge="1" parent="1" source="D95QP3MlJxtuGS18Q3mf-7" target="D95QP3MlJxtuGS18Q3mf-14">
          <mxGeometry relative="1" as="geometry">
            <Array as="points">
              <mxPoint x="1115" y="380" />
              <mxPoint x="1110" y="380" />
            </Array>
          </mxGeometry>
        </mxCell>
        <mxCell id="D95QP3MlJxtuGS18Q3mf-7" value="&lt;p style=&quot;margin-top: 0pt; margin-bottom: 0pt; margin-left: 0in; direction: ltr; unicode-bidi: embed; word-break: normal; font-size: 12px;&quot;&gt;&lt;span style=&quot;font-size: 12px;&quot;&gt;W=cross_mul4(w)&lt;/span&gt;&lt;/p&gt;" style="rounded=0;whiteSpace=wrap;html=1;fontFamily=Consolas;fontSize=12;fillColor=#f5f5f5;fontColor=#333333;strokeColor=#666666;" vertex="1" parent="1">
          <mxGeometry x="1050" y="210" width="130" height="40" as="geometry" />
        </mxCell>
        <mxCell id="D95QP3MlJxtuGS18Q3mf-12" style="edgeStyle=orthogonalEdgeStyle;rounded=0;orthogonalLoop=1;jettySize=auto;html=1;exitX=1;exitY=0.5;exitDx=0;exitDy=0;entryX=0;entryY=0.5;entryDx=0;entryDy=0;" edge="1" parent="1" source="D95QP3MlJxtuGS18Q3mf-10" target="D95QP3MlJxtuGS18Q3mf-11">
          <mxGeometry relative="1" as="geometry" />
        </mxCell>
        <mxCell id="D95QP3MlJxtuGS18Q3mf-10" value="&lt;p style=&quot;margin-top: 0pt; margin-bottom: 0pt; margin-left: 0in; direction: ltr; unicode-bidi: embed; word-break: normal; font-size: 12px;&quot;&gt;&lt;span style=&quot;font-size: 12px;&quot;&gt;[X,Y,Z]= rotate_plane(x,y,z,R)&lt;/span&gt;&lt;/p&gt;" style="rounded=0;html=1;fontFamily=Consolas;fontSize=12;whiteSpace=wrap;fillColor=#f5f5f5;fontColor=#333333;strokeColor=#666666;" vertex="1" parent="1">
          <mxGeometry x="1100" y="120" width="150" height="40" as="geometry" />
        </mxCell>
        <mxCell id="D95QP3MlJxtuGS18Q3mf-11" value="&lt;p style=&quot;margin-top: 0pt; margin-bottom: 0pt; margin-left: 0in; direction: ltr; unicode-bidi: embed; word-break: normal; font-size: 12px;&quot;&gt;&lt;span style=&quot;font-size: 12px;&quot;&gt;get_cube(l,R1,R2,R3)&lt;/span&gt;&lt;/p&gt;" style="rounded=0;html=1;fontFamily=Consolas;fontSize=12;whiteSpace=wrap;fillColor=#f5f5f5;fontColor=#333333;strokeColor=#666666;" vertex="1" parent="1">
          <mxGeometry x="1320" y="120" width="160" height="40" as="geometry" />
        </mxCell>
        <mxCell id="D95QP3MlJxtuGS18Q3mf-51" style="edgeStyle=orthogonalEdgeStyle;rounded=0;orthogonalLoop=1;jettySize=auto;html=1;exitX=0.5;exitY=1;exitDx=0;exitDy=0;entryX=0.75;entryY=0;entryDx=0;entryDy=0;" edge="1" parent="1" source="D95QP3MlJxtuGS18Q3mf-13" target="D95QP3MlJxtuGS18Q3mf-14">
          <mxGeometry relative="1" as="geometry" />
        </mxCell>
        <mxCell id="D95QP3MlJxtuGS18Q3mf-53" style="edgeStyle=orthogonalEdgeStyle;rounded=0;orthogonalLoop=1;jettySize=auto;html=1;exitX=1;exitY=0.5;exitDx=0;exitDy=0;entryX=1;entryY=0.5;entryDx=0;entryDy=0;" edge="1" parent="1" source="D95QP3MlJxtuGS18Q3mf-13" target="D95QP3MlJxtuGS18Q3mf-40">
          <mxGeometry relative="1" as="geometry">
            <Array as="points">
              <mxPoint x="1660" y="230" />
              <mxPoint x="1660" y="780" />
            </Array>
          </mxGeometry>
        </mxCell>
        <mxCell id="D95QP3MlJxtuGS18Q3mf-13" value="&lt;p style=&quot;margin-top: 0pt; margin-bottom: 0pt; margin-left: 0in; direction: ltr; unicode-bidi: embed; word-break: normal; font-size: 12px;&quot;&gt;&lt;span style=&quot;font-size: 12px;&quot;&gt;qu=quat_mul(x,y)&lt;/span&gt;&lt;/p&gt;" style="rounded=0;whiteSpace=wrap;html=1;fontFamily=Consolas;fontSize=12;fillColor=#f5f5f5;fontColor=#333333;strokeColor=#666666;" vertex="1" parent="1">
          <mxGeometry x="1280" y="210" width="140" height="40" as="geometry" />
        </mxCell>
        <mxCell id="D95QP3MlJxtuGS18Q3mf-73" style="edgeStyle=orthogonalEdgeStyle;rounded=0;orthogonalLoop=1;jettySize=auto;html=1;exitX=0;exitY=0.75;exitDx=0;exitDy=0;entryX=1;entryY=0.25;entryDx=0;entryDy=0;" edge="1" parent="1" source="D95QP3MlJxtuGS18Q3mf-14" target="D95QP3MlJxtuGS18Q3mf-40">
          <mxGeometry relative="1" as="geometry" />
        </mxCell>
        <mxCell id="D95QP3MlJxtuGS18Q3mf-14" value="[Cf,q,dq,P,b]=kalman_test(P0,dt, omegar,accr,q0,b0,sigmar,sigmab)&lt;div&gt;[Cf,q,P,b]=kalman(P0,dt, omegar,accr,q0,b0,sigmar,sigmab)&lt;br&gt;&lt;/div&gt;" style="rounded=0;fontFamily=Consolas;fontSize=12;whiteSpace=wrap;html=1;fillColor=#dae8fc;strokeColor=#6c8ebf;" vertex="1" parent="1">
          <mxGeometry x="990" y="450" width="480" height="40" as="geometry" />
        </mxCell>
        <mxCell id="D95QP3MlJxtuGS18Q3mf-54" style="edgeStyle=orthogonalEdgeStyle;rounded=0;orthogonalLoop=1;jettySize=auto;html=1;exitX=0.5;exitY=1;exitDx=0;exitDy=0;entryX=1;entryY=0.75;entryDx=0;entryDy=0;" edge="1" parent="1" source="D95QP3MlJxtuGS18Q3mf-15" target="D95QP3MlJxtuGS18Q3mf-40">
          <mxGeometry relative="1" as="geometry" />
        </mxCell>
        <mxCell id="D95QP3MlJxtuGS18Q3mf-15" value="&lt;p style=&quot;margin-top: 0pt; margin-bottom: 0pt; margin-left: 0in; direction: ltr; unicode-bidi: embed; word-break: normal; font-size: 12px;&quot;&gt;&lt;span style=&quot;font-size: 12px;&quot;&gt;Qinv&lt;/span&gt;&lt;span style=&quot;font-size: 12px;&quot;&gt; = &lt;/span&gt;&lt;span style=&quot;font-size: 12px;&quot;&gt;inverse_quat&lt;/span&gt;&lt;span style=&quot;font-size: 12px;&quot;&gt;(q)&lt;/span&gt;&lt;/p&gt;" style="rounded=0;whiteSpace=wrap;html=1;fontFamily=Consolas;fontSize=12;fillColor=#f5f5f5;fontColor=#333333;strokeColor=#666666;" vertex="1" parent="1">
          <mxGeometry x="1710" y="240" width="120" height="40" as="geometry" />
        </mxCell>
        <mxCell id="D95QP3MlJxtuGS18Q3mf-55" style="edgeStyle=orthogonalEdgeStyle;rounded=0;orthogonalLoop=1;jettySize=auto;html=1;exitX=0.5;exitY=1;exitDx=0;exitDy=0;entryX=1;entryY=0.5;entryDx=0;entryDy=0;" edge="1" parent="1" source="D95QP3MlJxtuGS18Q3mf-16" target="D95QP3MlJxtuGS18Q3mf-38">
          <mxGeometry relative="1" as="geometry" />
        </mxCell>
        <mxCell id="D95QP3MlJxtuGS18Q3mf-91" style="edgeStyle=orthogonalEdgeStyle;rounded=0;orthogonalLoop=1;jettySize=auto;html=1;exitX=0.75;exitY=1;exitDx=0;exitDy=0;entryX=0.5;entryY=0;entryDx=0;entryDy=0;" edge="1" parent="1" source="D95QP3MlJxtuGS18Q3mf-16" target="D95QP3MlJxtuGS18Q3mf-90">
          <mxGeometry relative="1" as="geometry" />
        </mxCell>
        <mxCell id="D95QP3MlJxtuGS18Q3mf-16" value="&lt;p style=&quot;margin-top: 0pt; margin-bottom: 0pt; margin-left: 0in; direction: ltr; unicode-bidi: embed; word-break: normal; font-size: 12px;&quot;&gt;R=R1(a)&lt;/p&gt;&lt;p style=&quot;margin-top: 0pt; margin-bottom: 0pt; margin-left: 0in; direction: ltr; unicode-bidi: embed; word-break: normal; font-size: 12px;&quot;&gt;R=R2(a)&lt;/p&gt;&lt;p style=&quot;margin-top: 0pt; margin-bottom: 0pt; margin-left: 0in; direction: ltr; unicode-bidi: embed; word-break: normal; font-size: 12px;&quot;&gt;R=R3(a)&lt;/p&gt;" style="rounded=0;whiteSpace=wrap;html=1;fontFamily=Consolas;fontSize=12;fillColor=#f5f5f5;fontColor=#333333;strokeColor=#666666;" vertex="1" parent="1">
          <mxGeometry x="1870" y="230" width="80" height="60" as="geometry" />
        </mxCell>
        <mxCell id="D95QP3MlJxtuGS18Q3mf-19" value="&lt;p style=&quot;margin-top: 0pt; margin-bottom: 0pt; margin-left: 0in; direction: ltr; unicode-bidi: embed; font-size: 12px;&quot;&gt;&lt;span style=&quot;font-size: 12px;&quot;&gt;cursorinfort.m&lt;/span&gt;&lt;/p&gt;" style="rounded=0;whiteSpace=wrap;html=1;fontFamily=Consolas;fontSize=12;verticalAlign=top;align=left;fillColor=#f8cecc;strokeColor=#b85450;" vertex="1" parent="1">
          <mxGeometry x="2080" y="160" width="110" height="40" as="geometry" />
        </mxCell>
        <mxCell id="D95QP3MlJxtuGS18Q3mf-20" value="&lt;p style=&quot;margin-top: 0pt; margin-bottom: 0pt; margin-left: 0in; direction: ltr; unicode-bidi: embed; word-break: normal; font-size: 12px;&quot;&gt;&lt;span style=&quot;font-size: 12px;&quot;&gt;data_plot.m&lt;/span&gt;&lt;/p&gt;" style="rounded=0;whiteSpace=wrap;html=1;fontFamily=Consolas;fontSize=12;verticalAlign=top;align=left;fillColor=#f8cecc;strokeColor=#b85450;" vertex="1" parent="1">
          <mxGeometry x="2080" y="220" width="110" height="40" as="geometry" />
        </mxCell>
        <mxCell id="D95QP3MlJxtuGS18Q3mf-61" style="edgeStyle=orthogonalEdgeStyle;rounded=0;orthogonalLoop=1;jettySize=auto;html=1;exitX=0.5;exitY=1;exitDx=0;exitDy=0;entryX=1;entryY=0.25;entryDx=0;entryDy=0;" edge="1" parent="1" source="D95QP3MlJxtuGS18Q3mf-22" target="D95QP3MlJxtuGS18Q3mf-34">
          <mxGeometry relative="1" as="geometry" />
        </mxCell>
        <mxCell id="D95QP3MlJxtuGS18Q3mf-22" value="&lt;p style=&quot;margin-top: 0pt; margin-bottom: 0pt; margin-left: 0in; direction: ltr; unicode-bidi: embed; word-break: normal; font-size: 12px;&quot;&gt;&lt;span style=&quot;font-size: 12px;&quot;&gt;plot_euld&lt;/span&gt;&lt;span style=&quot;font-size: 12px;&quot;&gt;(&lt;/span&gt;&lt;span style=&quot;font-size: 12px;&quot;&gt;euld,avg&lt;/span&gt;&lt;span style=&quot;font-size: 12px;&quot;&gt;)&lt;/span&gt;&lt;/p&gt;" style="rounded=0;whiteSpace=wrap;html=1;fontFamily=Consolas;fontSize=12;fillColor=#f8cecc;strokeColor=#b85450;" vertex="1" parent="1">
          <mxGeometry x="2520" y="160" width="160" height="40" as="geometry" />
        </mxCell>
        <mxCell id="D95QP3MlJxtuGS18Q3mf-23" value="&lt;p style=&quot;margin-top: 0pt; margin-bottom: 0pt; margin-left: 0in; direction: ltr; unicode-bidi: embed; word-break: normal; font-size: 12px;&quot;&gt;&lt;span style=&quot;font-size: 12px;&quot;&gt;loca&lt;br style=&quot;font-size: 12px;&quot;&gt;= &lt;/span&gt;&lt;span style=&quot;font-size: 12px;&quot;&gt;find_MS&lt;/span&gt;&lt;span style=&quot;font-size: 12px;&quot;&gt;(d)&lt;/span&gt;&lt;/p&gt;" style="rounded=0;whiteSpace=wrap;html=1;fontFamily=Consolas;fontSize=12;fillColor=#ffe6cc;strokeColor=#d79b00;" vertex="1" parent="1">
          <mxGeometry x="2685" y="640" width="160" height="40" as="geometry" />
        </mxCell>
        <mxCell id="D95QP3MlJxtuGS18Q3mf-24" value="&lt;p style=&quot;margin-top: 0pt; margin-bottom: 0pt; margin-left: 0in; direction: ltr; unicode-bidi: embed; word-break: normal; font-size: 12px;&quot;&gt;&lt;span style=&quot;font-size: 12px;&quot;&gt;euld_mean2.m&lt;/span&gt;&lt;/p&gt;" style="rounded=0;whiteSpace=wrap;html=1;fontFamily=Consolas;fontSize=12;verticalAlign=top;align=left;fillColor=#ffe6cc;strokeColor=#d79b00;" vertex="1" parent="1">
          <mxGeometry x="2660" y="850" width="210" height="80" as="geometry" />
        </mxCell>
        <mxCell id="D95QP3MlJxtuGS18Q3mf-102" style="edgeStyle=orthogonalEdgeStyle;rounded=0;orthogonalLoop=1;jettySize=auto;html=1;exitX=0.25;exitY=1;exitDx=0;exitDy=0;entryX=1;entryY=0.5;entryDx=0;entryDy=0;" edge="1" parent="1" source="D95QP3MlJxtuGS18Q3mf-25" target="D95QP3MlJxtuGS18Q3mf-101">
          <mxGeometry relative="1" as="geometry" />
        </mxCell>
        <mxCell id="D95QP3MlJxtuGS18Q3mf-25" value="&lt;p style=&quot;margin-top: 0pt; margin-bottom: 0pt; margin-left: 0in; direction: ltr; unicode-bidi: embed; word-break: normal; font-size: 12px;&quot;&gt;&lt;span style=&quot;font-size: 12px;&quot;&gt;[ma2,maSD2]&lt;br style=&quot;font-size: 12px;&quot;&gt;= euld_mean2(ma)&lt;/span&gt;&lt;/p&gt;" style="rounded=0;whiteSpace=wrap;html=1;fontFamily=Consolas;fontSize=12;fillColor=#ffe6cc;strokeColor=#d79b00;" vertex="1" parent="1">
          <mxGeometry x="2670" y="880" width="190" height="40" as="geometry" />
        </mxCell>
        <mxCell id="D95QP3MlJxtuGS18Q3mf-26" value="&lt;p style=&quot;margin-top: 0pt; margin-bottom: 0pt; margin-left: 0in; direction: ltr; unicode-bidi: embed; word-break: normal; font-size: 12px;&quot;&gt;&lt;span style=&quot;font-size: 12px;&quot;&gt;euld_mean.m&lt;/span&gt;&lt;/p&gt;" style="rounded=0;whiteSpace=wrap;html=1;fontFamily=Consolas;fontSize=12;verticalAlign=top;align=left;fillColor=#ffe6cc;strokeColor=#d79b00;" vertex="1" parent="1">
          <mxGeometry x="2280" y="850" width="220" height="80" as="geometry" />
        </mxCell>
        <mxCell id="D95QP3MlJxtuGS18Q3mf-59" style="edgeStyle=orthogonalEdgeStyle;rounded=0;orthogonalLoop=1;jettySize=auto;html=1;exitX=0;exitY=0.5;exitDx=0;exitDy=0;entryX=1;entryY=0.5;entryDx=0;entryDy=0;" edge="1" parent="1" source="D95QP3MlJxtuGS18Q3mf-27" target="D95QP3MlJxtuGS18Q3mf-34">
          <mxGeometry relative="1" as="geometry" />
        </mxCell>
        <mxCell id="D95QP3MlJxtuGS18Q3mf-27" value="&lt;p style=&quot;margin-top: 0pt; margin-bottom: 0pt; margin-left: 0in; direction: ltr; unicode-bidi: embed; word-break: normal; font-size: 12px;&quot;&gt;&lt;span style=&quot;font-size: 12px;&quot;&gt;[ma2,maSD2]&lt;br style=&quot;font-size: 12px;&quot;&gt;= euld_mean(ma)&lt;/span&gt;&lt;/p&gt;" style="rounded=0;whiteSpace=wrap;html=1;fontFamily=Consolas;fontSize=12;fillColor=#ffe6cc;strokeColor=#d79b00;" vertex="1" parent="1">
          <mxGeometry x="2295" y="880" width="190" height="40" as="geometry" />
        </mxCell>
        <mxCell id="D95QP3MlJxtuGS18Q3mf-29" value="&lt;p style=&quot;margin-top: 0pt; margin-bottom: 0pt; margin-left: 0in; direction: ltr; unicode-bidi: embed; word-break: normal; font-size: 12px;&quot;&gt;&lt;span style=&quot;font-size: 12px;&quot;&gt;euld__new.m&lt;/span&gt;&lt;/p&gt;" style="rounded=0;whiteSpace=wrap;html=1;fontFamily=Consolas;fontSize=12;verticalAlign=top;align=left;fillColor=#ffe6cc;strokeColor=#d79b00;" vertex="1" parent="1">
          <mxGeometry x="2280" y="640" width="220" height="130" as="geometry" />
        </mxCell>
        <mxCell id="D95QP3MlJxtuGS18Q3mf-98" style="edgeStyle=orthogonalEdgeStyle;rounded=0;orthogonalLoop=1;jettySize=auto;html=1;exitX=1;exitY=0.5;exitDx=0;exitDy=0;entryX=1;entryY=0.5;entryDx=0;entryDy=0;" edge="1" parent="1" source="D95QP3MlJxtuGS18Q3mf-30" target="D95QP3MlJxtuGS18Q3mf-97">
          <mxGeometry relative="1" as="geometry">
            <Array as="points">
              <mxPoint x="2540" y="720" />
              <mxPoint x="2540" y="1090" />
            </Array>
          </mxGeometry>
        </mxCell>
        <mxCell id="D95QP3MlJxtuGS18Q3mf-30" value="&lt;p style=&quot;margin-top: 0pt; margin-bottom: 0pt; margin-left: 0in; direction: ltr; unicode-bidi: embed; word-break: normal; font-size: 12px;&quot;&gt;&lt;span style=&quot;font-size: 12px;&quot;&gt;ma = euld_mean[euld]&lt;/span&gt;&lt;/p&gt;" style="rounded=0;whiteSpace=wrap;html=1;fontFamily=Consolas;fontSize=12;fillColor=#ffe6cc;strokeColor=#d79b00;" vertex="1" parent="1">
          <mxGeometry x="2310" y="700" width="160" height="40" as="geometry" />
        </mxCell>
        <mxCell id="D95QP3MlJxtuGS18Q3mf-31" value="&lt;p style=&quot;margin-top: 0pt; margin-bottom: 0pt; margin-left: 0in; direction: ltr; unicode-bidi: embed; word-break: normal; font-size: 12px;&quot;&gt;&lt;span style=&quot;font-size: 12px;&quot;&gt;[&lt;/span&gt;&lt;span style=&quot;font-size: 12px;&quot;&gt;locIC,locTO,newdataSet&lt;/span&gt;&lt;span style=&quot;font-size: 12px;&quot;&gt;] = &lt;/span&gt;&lt;span style=&quot;font-size: 12px;&quot;&gt;find_IC_TO&lt;/span&gt;&lt;span style=&quot;font-size: 12px;&quot;&gt;(&lt;/span&gt;&lt;span style=&quot;font-size: 12px;&quot;&gt;d,loca&lt;/span&gt;&lt;span style=&quot;font-size: 12px;&quot;&gt;)&lt;/span&gt;&lt;/p&gt;" style="rounded=0;whiteSpace=wrap;html=1;fontFamily=Consolas;fontSize=12;fillColor=#ffe6cc;strokeColor=#d79b00;" vertex="1" parent="1">
          <mxGeometry x="2045" y="640" width="200" height="40" as="geometry" />
        </mxCell>
        <mxCell id="D95QP3MlJxtuGS18Q3mf-34" value="&lt;p style=&quot;margin-top: 0pt; margin-bottom: 0pt; margin-left: 0in; direction: ltr; unicode-bidi: embed; word-break: normal; font-size: 12px;&quot;&gt;&lt;span style=&quot;font-size: 12px;&quot;&gt;gait_analyze.m&lt;/span&gt;&lt;/p&gt;" style="rounded=0;whiteSpace=wrap;html=1;fontFamily=Consolas;fontSize=12;verticalAlign=top;align=left;fillColor=#ffff88;strokeColor=#36393d;" vertex="1" parent="1">
          <mxGeometry x="1590" y="1180" width="230" height="50" as="geometry" />
        </mxCell>
        <mxCell id="D95QP3MlJxtuGS18Q3mf-62" style="edgeStyle=orthogonalEdgeStyle;rounded=0;orthogonalLoop=1;jettySize=auto;html=1;exitX=0.5;exitY=1;exitDx=0;exitDy=0;entryX=0;entryY=0.25;entryDx=0;entryDy=0;" edge="1" parent="1" source="D95QP3MlJxtuGS18Q3mf-35" target="D95QP3MlJxtuGS18Q3mf-34">
          <mxGeometry relative="1" as="geometry" />
        </mxCell>
        <mxCell id="D95QP3MlJxtuGS18Q3mf-35" value="&lt;p style=&quot;margin-top: 0pt; margin-bottom: 0pt; margin-left: 0in; direction: ltr; unicode-bidi: embed; word-break: normal; font-size: 12px;&quot;&gt;&lt;span style=&quot;font-size: 12px;&quot;&gt;tra&lt;/span&gt;&lt;span style=&quot;font-size: 12px;&quot;&gt; = trajectry(&lt;/span&gt;&lt;span style=&quot;font-size: 12px;&quot;&gt;d,dt,aMean&lt;/span&gt;&lt;span style=&quot;font-size: 12px;&quot;&gt;)&lt;/span&gt;&lt;/p&gt;" style="rounded=0;fontFamily=Consolas;fontSize=12;whiteSpace=wrap;html=1;fillColor=#ffe6cc;strokeColor=#d79b00;" vertex="1" parent="1">
          <mxGeometry x="1410" y="850" width="170" height="40" as="geometry" />
        </mxCell>
        <mxCell id="D95QP3MlJxtuGS18Q3mf-63" style="edgeStyle=orthogonalEdgeStyle;rounded=0;orthogonalLoop=1;jettySize=auto;html=1;exitX=0.5;exitY=1;exitDx=0;exitDy=0;entryX=0;entryY=0.5;entryDx=0;entryDy=0;" edge="1" parent="1" source="D95QP3MlJxtuGS18Q3mf-36" target="D95QP3MlJxtuGS18Q3mf-34">
          <mxGeometry relative="1" as="geometry" />
        </mxCell>
        <mxCell id="D95QP3MlJxtuGS18Q3mf-36" value="&lt;p style=&quot;margin-top: 0pt; margin-bottom: 0pt; margin-left: 0in; direction: ltr; unicode-bidi: embed; word-break: normal; font-size: 12px;&quot;&gt;&lt;span style=&quot;font-size: 12px;&quot;&gt;v = &lt;/span&gt;&lt;span style=&quot;font-size: 12px;&quot;&gt;joint_velo&lt;/span&gt;&lt;span style=&quot;font-size: 12px;&quot;&gt;(&lt;/span&gt;&lt;span style=&quot;font-size: 12px;&quot;&gt;euld,T&lt;/span&gt;&lt;span style=&quot;font-size: 12px;&quot;&gt;)&lt;/span&gt;&lt;/p&gt;" style="rounded=0;fontFamily=Consolas;fontSize=12;whiteSpace=wrap;html=1;fillColor=#ffe6cc;strokeColor=#d79b00;" vertex="1" parent="1">
          <mxGeometry x="1180" y="850" width="210" height="40" as="geometry" />
        </mxCell>
        <mxCell id="D95QP3MlJxtuGS18Q3mf-37" value="&lt;p style=&quot;margin-top: 0pt; margin-bottom: 0pt; margin-left: 0in; direction: ltr; unicode-bidi: embed; word-break: normal; font-size: 12px;&quot;&gt;&lt;span style=&quot;font-size: 12px;&quot;&gt;[&lt;/span&gt;&lt;span style=&quot;font-size: 12px;&quot;&gt;gyro,acc,R&lt;/span&gt;&lt;span style=&quot;font-size: 12px;&quot;&gt;]=&lt;/span&gt;&lt;span style=&quot;font-size: 12px;&quot;&gt;gen_data&lt;/span&gt;&lt;span style=&quot;font-size: 12px;&quot;&gt;(R0,OMEGA, Oddot,dt,sigmar,sigmab)&lt;/span&gt;&lt;/p&gt;" style="rounded=0;fontFamily=Consolas;fontSize=12;whiteSpace=wrap;html=1;fillColor=#ffe6cc;strokeColor=#d79b00;" vertex="1" parent="1">
          <mxGeometry x="1610" y="910" width="220" height="40" as="geometry" />
        </mxCell>
        <mxCell id="D95QP3MlJxtuGS18Q3mf-38" value="&lt;p style=&quot;margin-top: 0pt; margin-bottom: 0pt; margin-left: 0in; direction: ltr; unicode-bidi: embed; word-break: normal; font-size: 12px;&quot;&gt;&lt;span style=&quot;font-size: 12px;&quot;&gt;[&lt;/span&gt;&lt;span style=&quot;font-size: 12px;&quot;&gt;gyro,acc&lt;/span&gt;&lt;span style=&quot;font-size: 12px;&quot;&gt;]=&lt;/span&gt;&lt;span style=&quot;font-size: 12px;&quot;&gt;generate_data&lt;/span&gt;&lt;span style=&quot;font-size: 12px;&quot;&gt;(&lt;/span&gt;&lt;span style=&quot;font-size: 12px;&quot;&gt;len,phi, theta,psi,odot,dt&lt;/span&gt;&lt;span style=&quot;font-size: 12px;&quot;&gt;)&lt;/span&gt;&lt;/p&gt;" style="rounded=0;fontFamily=Consolas;fontSize=12;whiteSpace=wrap;html=1;fillColor=#ffe6cc;strokeColor=#d79b00;" vertex="1" parent="1">
          <mxGeometry x="1590" y="960" width="260" height="40" as="geometry" />
        </mxCell>
        <mxCell id="D95QP3MlJxtuGS18Q3mf-72" style="edgeStyle=orthogonalEdgeStyle;rounded=0;orthogonalLoop=1;jettySize=auto;html=1;exitX=0.5;exitY=1;exitDx=0;exitDy=0;entryX=0.5;entryY=0;entryDx=0;entryDy=0;" edge="1" parent="1" source="D95QP3MlJxtuGS18Q3mf-39" target="D95QP3MlJxtuGS18Q3mf-40">
          <mxGeometry relative="1" as="geometry" />
        </mxCell>
        <mxCell id="D95QP3MlJxtuGS18Q3mf-39" value="&lt;p style=&quot;margin-top: 0pt; margin-bottom: 0pt; margin-left: 0in; direction: ltr; unicode-bidi: embed; word-break: normal; font-size: 12px;&quot;&gt;&lt;span style=&quot;font-size: 12px;&quot;&gt;[R,q]&lt;br style=&quot;font-size: 12px;&quot;&gt;= get_initial_rotation(a)&lt;/span&gt;&lt;/p&gt;" style="rounded=0;fontFamily=Consolas;fontSize=12;whiteSpace=wrap;html=1;fillColor=#ffe6cc;strokeColor=#d79b00;" vertex="1" parent="1">
          <mxGeometry x="710" y="630" width="200" height="40" as="geometry" />
        </mxCell>
        <mxCell id="D95QP3MlJxtuGS18Q3mf-66" style="edgeStyle=orthogonalEdgeStyle;rounded=0;orthogonalLoop=1;jettySize=auto;html=1;exitX=1;exitY=0.5;exitDx=0;exitDy=0;entryX=0.5;entryY=0;entryDx=0;entryDy=0;" edge="1" parent="1" source="D95QP3MlJxtuGS18Q3mf-78" target="D95QP3MlJxtuGS18Q3mf-34">
          <mxGeometry relative="1" as="geometry">
            <Array as="points">
              <mxPoint x="1050" y="815" />
              <mxPoint x="1050" y="1090" />
              <mxPoint x="1705" y="1090" />
            </Array>
          </mxGeometry>
        </mxCell>
        <mxCell id="D95QP3MlJxtuGS18Q3mf-40" value="&lt;p style=&quot;margin-top: 0pt; margin-bottom: 0pt; margin-left: 0in; direction: ltr; unicode-bidi: embed; word-break: normal; font-size: 12px;&quot;&gt;&lt;span style=&quot;font-size: 12px;&quot;&gt;[euld,Rota,Qk] = analyze_data_init(&lt;/span&gt;&lt;span style=&quot;font-size: 12px;&quot;&gt;d,dt&lt;/span&gt;&lt;span style=&quot;font-size: 12px;&quot;&gt;)&lt;/span&gt;&lt;/p&gt;&lt;p style=&quot;margin-top: 0pt; margin-bottom: 0pt; margin-left: 0in; direction: ltr; unicode-bidi: embed; word-break: normal; font-size: 12px;&quot;&gt;&lt;span style=&quot;font-size: 12px;&quot;&gt;[&lt;/span&gt;&lt;span style=&quot;font-size: 12px;&quot;&gt;euld,Rota,Qk&lt;/span&gt;&lt;span style=&quot;font-size: 12px;&quot;&gt;] = &lt;/span&gt;&lt;span style=&quot;font-size: 12px;&quot;&gt;analyze_data&lt;/span&gt;&lt;span style=&quot;font-size: 12px;&quot;&gt;(d,dt,q0)&lt;/span&gt;&lt;/p&gt;" style="rounded=0;fontFamily=Consolas;fontSize=12;whiteSpace=wrap;html=1;fillColor=#ffe6cc;strokeColor=#d79b00;" vertex="1" parent="1">
          <mxGeometry x="670" y="760" width="280" height="40" as="geometry" />
        </mxCell>
        <mxCell id="D95QP3MlJxtuGS18Q3mf-69" style="edgeStyle=orthogonalEdgeStyle;rounded=0;orthogonalLoop=1;jettySize=auto;html=1;exitX=1;exitY=0.5;exitDx=0;exitDy=0;entryX=0;entryY=0.5;entryDx=0;entryDy=0;" edge="1" parent="1" source="D95QP3MlJxtuGS18Q3mf-41" target="D95QP3MlJxtuGS18Q3mf-40">
          <mxGeometry relative="1" as="geometry" />
        </mxCell>
        <mxCell id="D95QP3MlJxtuGS18Q3mf-41" value="&lt;p style=&quot;margin-top: 0pt; margin-bottom: 0pt; margin-left: 0in; direction: ltr; unicode-bidi: embed; word-break: normal; font-size: 12px;&quot;&gt;&lt;span style=&quot;font-size: 12px;&quot;&gt;[&lt;/span&gt;&lt;span style=&quot;font-size: 12px;&quot;&gt;C,q&lt;/span&gt;&lt;span style=&quot;font-size: 12px;&quot;&gt;]=&lt;/span&gt;&lt;span style=&quot;font-size: 12px;&quot;&gt;only_gyro&lt;/span&gt;&lt;span style=&quot;font-size: 12px;&quot;&gt;(omegar,q0,dt)&lt;/span&gt;&lt;/p&gt;" style="rounded=0;fontFamily=Consolas;fontSize=12;whiteSpace=wrap;html=1;fillColor=#ffe6cc;strokeColor=#d79b00;" vertex="1" parent="1">
          <mxGeometry x="210" y="760" width="260" height="40" as="geometry" />
        </mxCell>
        <mxCell id="D95QP3MlJxtuGS18Q3mf-64" style="edgeStyle=orthogonalEdgeStyle;rounded=0;orthogonalLoop=1;jettySize=auto;html=1;exitX=1;exitY=0.5;exitDx=0;exitDy=0;entryX=0;entryY=0.75;entryDx=0;entryDy=0;" edge="1" parent="1" source="D95QP3MlJxtuGS18Q3mf-42" target="D95QP3MlJxtuGS18Q3mf-34">
          <mxGeometry relative="1" as="geometry" />
        </mxCell>
        <mxCell id="D95QP3MlJxtuGS18Q3mf-65" style="edgeStyle=orthogonalEdgeStyle;rounded=0;orthogonalLoop=1;jettySize=auto;html=1;exitX=0.5;exitY=1;exitDx=0;exitDy=0;entryX=0.25;entryY=1;entryDx=0;entryDy=0;" edge="1" parent="1" source="D95QP3MlJxtuGS18Q3mf-42" target="D95QP3MlJxtuGS18Q3mf-34">
          <mxGeometry relative="1" as="geometry" />
        </mxCell>
        <mxCell id="D95QP3MlJxtuGS18Q3mf-42" value="&lt;p style=&quot;margin-top: 0pt; margin-bottom: 0pt; margin-left: 0in; direction: ltr; unicode-bidi: embed; word-break: normal; font-size: 12px;&quot;&gt;&lt;span style=&quot;font-size: 12px;&quot;&gt;[&lt;/span&gt;&lt;span style=&quot;font-size: 12px;&quot;&gt;displacement,eulstep&lt;/span&gt;&lt;span style=&quot;font-size: 12px;&quot;&gt;] = &lt;/span&gt;&lt;span style=&quot;font-size: 12px;&quot;&gt;calculate_displacement&lt;/span&gt;&lt;span style=&quot;font-size: 12px;&quot;&gt;(&lt;/span&gt;&lt;span style=&quot;font-size: 12px;&quot;&gt;quaternion_data&lt;/span&gt;&lt;span style=&quot;font-size: 12px;&quot;&gt;, &lt;/span&gt;&lt;span style=&quot;font-size: 12px;&quot;&gt;acceleration_data&lt;/span&gt;&lt;span style=&quot;font-size: 12px;&quot;&gt;, &lt;/span&gt;&lt;span style=&quot;font-size: 12px;&quot;&gt;direction_of_motion&lt;/span&gt;&lt;span style=&quot;font-size: 12px;&quot;&gt;)&lt;/span&gt;&lt;/p&gt;" style="rounded=0;fontFamily=Consolas;fontSize=12;whiteSpace=wrap;html=1;fillColor=#ffe6cc;strokeColor=#d79b00;" vertex="1" parent="1">
          <mxGeometry x="650" y="910" width="300" height="70" as="geometry" />
        </mxCell>
        <mxCell id="D95QP3MlJxtuGS18Q3mf-60" style="edgeStyle=orthogonalEdgeStyle;rounded=0;orthogonalLoop=1;jettySize=auto;html=1;exitX=0.5;exitY=1;exitDx=0;exitDy=0;entryX=0.75;entryY=1;entryDx=0;entryDy=0;" edge="1" parent="1" source="D95QP3MlJxtuGS18Q3mf-25" target="D95QP3MlJxtuGS18Q3mf-34">
          <mxGeometry relative="1" as="geometry" />
        </mxCell>
        <mxCell id="D95QP3MlJxtuGS18Q3mf-78" value="&lt;p style=&quot;margin-top: 0pt; margin-bottom: 0pt; margin-left: 0in; direction: ltr; unicode-bidi: embed; word-break: normal; font-size: 12px;&quot;&gt;[euld,Rota,Qk] = analyze_data_init(d,dt)&lt;br&gt;&lt;/p&gt;" style="rounded=0;fontFamily=Consolas;fontSize=12;whiteSpace=wrap;html=1;fillColor=#ffe6cc;strokeColor=#d79b00;" vertex="1" parent="1">
          <mxGeometry x="670" y="800" width="280" height="30" as="geometry" />
        </mxCell>
        <mxCell id="D95QP3MlJxtuGS18Q3mf-80" style="edgeStyle=orthogonalEdgeStyle;rounded=0;orthogonalLoop=1;jettySize=auto;html=1;exitX=1;exitY=0.5;exitDx=0;exitDy=0;entryX=0.25;entryY=0;entryDx=0;entryDy=0;" edge="1" parent="1" source="D95QP3MlJxtuGS18Q3mf-79" target="D95QP3MlJxtuGS18Q3mf-34">
          <mxGeometry relative="1" as="geometry">
            <Array as="points">
              <mxPoint x="1040" y="845" />
              <mxPoint x="1040" y="1100" />
              <mxPoint x="1648" y="1100" />
            </Array>
          </mxGeometry>
        </mxCell>
        <mxCell id="D95QP3MlJxtuGS18Q3mf-79" value="&lt;p style=&quot;margin-top: 0pt; margin-bottom: 0pt; margin-left: 0in; direction: ltr; unicode-bidi: embed; word-break: normal; font-size: 12px;&quot;&gt;&lt;span style=&quot;background-color: initial;&quot;&gt;[&lt;/span&gt;&lt;span style=&quot;background-color: initial;&quot;&gt;euld,Rota,Qk&lt;/span&gt;&lt;span style=&quot;background-color: initial;&quot;&gt;] = &lt;/span&gt;&lt;span style=&quot;background-color: initial;&quot;&gt;analyze_data&lt;/span&gt;&lt;span style=&quot;background-color: initial;&quot;&gt;(d,dt,q0)&lt;/span&gt;&lt;br&gt;&lt;/p&gt;" style="rounded=0;fontFamily=Consolas;fontSize=12;whiteSpace=wrap;html=1;fillColor=#ffe6cc;strokeColor=#d79b00;" vertex="1" parent="1">
          <mxGeometry x="670" y="830" width="280" height="30" as="geometry" />
        </mxCell>
        <mxCell id="D95QP3MlJxtuGS18Q3mf-81" value="[Cf,q,dq,P,b]=kalman_test(P0,dt, omegar,accr,q0,b0,sigmar,sigmab)" style="rounded=0;fontFamily=Consolas;fontSize=12;whiteSpace=wrap;html=1;fillColor=#dae8fc;strokeColor=#6c8ebf;" vertex="1" parent="1">
          <mxGeometry x="990" y="490" width="480" height="30" as="geometry" />
        </mxCell>
        <mxCell id="D95QP3MlJxtuGS18Q3mf-82" value="[Cf,q,P,b]=kalman(P0,dt, omegar,accr,q0,b0,sigmar,sigmab)" style="rounded=0;fontFamily=Consolas;fontSize=12;whiteSpace=wrap;html=1;fillColor=#dae8fc;strokeColor=#6c8ebf;" vertex="1" parent="1">
          <mxGeometry x="990" y="520" width="480" height="30" as="geometry" />
        </mxCell>
        <mxCell id="D95QP3MlJxtuGS18Q3mf-83" value="&lt;p style=&quot;margin-top: 0pt; margin-bottom: 0pt; margin-left: 0in; direction: ltr; unicode-bidi: embed; word-break: normal;&quot;&gt;plot_coordinate_axes(C, title_str)&lt;br&gt;&lt;/p&gt;" style="rounded=0;whiteSpace=wrap;html=1;fontFamily=Consolas;fontSize=12;fillColor=#f8cecc;strokeColor=#b85450;" vertex="1" parent="1">
          <mxGeometry x="2240" y="160" width="250" height="40" as="geometry" />
        </mxCell>
        <mxCell id="D95QP3MlJxtuGS18Q3mf-84" value="&lt;p style=&quot;margin-top: 0pt; margin-bottom: 0pt; margin-left: 0in; direction: ltr; unicode-bidi: embed; word-break: normal;&quot;&gt;q_result = quaternion_slerp(q1, q2, t)&lt;br&gt;&lt;/p&gt;" style="rounded=0;whiteSpace=wrap;html=1;fontFamily=Consolas;fontSize=12;fillColor=#f5f5f5;fontColor=#333333;strokeColor=#666666;" vertex="1" parent="1">
          <mxGeometry x="680" y="120" width="200" height="40" as="geometry" />
        </mxCell>
        <mxCell id="D95QP3MlJxtuGS18Q3mf-85" value="&lt;p style=&quot;margin-top: 0pt; margin-bottom: 0pt; margin-left: 0in; direction: ltr; unicode-bidi: embed; word-break: normal;&quot;&gt;e=rotate_joint(q,x0,y0,z0)&lt;br&gt;&lt;/p&gt;" style="rounded=0;fontFamily=Consolas;fontSize=12;whiteSpace=wrap;html=1;fillColor=#ffe6cc;strokeColor=#d79b00;" vertex="1" parent="1">
          <mxGeometry x="1125" y="630" width="210" height="40" as="geometry" />
        </mxCell>
        <mxCell id="D95QP3MlJxtuGS18Q3mf-89" style="edgeStyle=orthogonalEdgeStyle;rounded=0;orthogonalLoop=1;jettySize=auto;html=1;exitX=0.5;exitY=1;exitDx=0;exitDy=0;entryX=0.5;entryY=0;entryDx=0;entryDy=0;" edge="1" parent="1" source="D95QP3MlJxtuGS18Q3mf-88" target="D95QP3MlJxtuGS18Q3mf-85">
          <mxGeometry relative="1" as="geometry">
            <Array as="points">
              <mxPoint x="685" y="580" />
              <mxPoint x="1230" y="580" />
            </Array>
          </mxGeometry>
        </mxCell>
        <mxCell id="D95QP3MlJxtuGS18Q3mf-88" value="&lt;p style=&quot;margin-top: 0pt; margin-bottom: 0pt; margin-left: 0in; direction: ltr; unicode-bidi: embed; word-break: normal;&quot;&gt;[X,Y,Z]=rotate_body(R, x,y,z,x0,y0,z0)&lt;br&gt;&lt;/p&gt;" style="rounded=0;html=1;fontFamily=Consolas;fontSize=12;whiteSpace=wrap;fillColor=#f5f5f5;fontColor=#333333;strokeColor=#666666;" vertex="1" parent="1">
          <mxGeometry x="610" y="340" width="150" height="40" as="geometry" />
        </mxCell>
        <mxCell id="D95QP3MlJxtuGS18Q3mf-90" value="&lt;p style=&quot;margin-top: 0pt; margin-bottom: 0pt; margin-left: 0in; direction: ltr; unicode-bidi: embed; word-break: normal; font-size: 12px;&quot;&gt;&lt;span style=&quot;font-size: 12px;&quot;&gt;test.m&lt;/span&gt;&lt;/p&gt;" style="rounded=0;whiteSpace=wrap;html=1;fontFamily=Consolas;fontSize=12;verticalAlign=top;align=left;fillColor=#cdeb8b;strokeColor=#36393d;" vertex="1" parent="1">
          <mxGeometry x="1880" y="1110" width="80" height="50" as="geometry" />
        </mxCell>
        <mxCell id="D95QP3MlJxtuGS18Q3mf-94" value="&lt;p style=&quot;margin-top: 0pt; margin-bottom: 0pt; margin-left: 0in; direction: ltr; unicode-bidi: embed; word-break: normal; font-size: 12px;&quot;&gt;&lt;span style=&quot;font-size: 12px;&quot;&gt;testtt.m&lt;/span&gt;&lt;/p&gt;" style="rounded=0;whiteSpace=wrap;html=1;fontFamily=Consolas;fontSize=12;verticalAlign=top;align=left;fillColor=#cdeb8b;strokeColor=#36393d;" vertex="1" parent="1">
          <mxGeometry x="2110" y="1130" width="70" height="40" as="geometry" />
        </mxCell>
        <mxCell id="D95QP3MlJxtuGS18Q3mf-95" value="&lt;p style=&quot;margin-top: 0pt; margin-bottom: 0pt; margin-left: 0in; direction: ltr; unicode-bidi: embed; word-break: normal;&quot;&gt;trajectry_test.m&lt;br&gt;&lt;/p&gt;" style="rounded=0;whiteSpace=wrap;html=1;fontFamily=Consolas;fontSize=12;verticalAlign=top;align=left;fillColor=#cdeb8b;strokeColor=#36393d;" vertex="1" parent="1">
          <mxGeometry x="2200" y="1130" width="140" height="40" as="geometry" />
        </mxCell>
        <mxCell id="D95QP3MlJxtuGS18Q3mf-96" value="&lt;p style=&quot;margin-top: 0pt; margin-bottom: 0pt; margin-left: 0in; direction: ltr; unicode-bidi: embed; word-break: normal;&quot;&gt;trajectry_test2.m&lt;br&gt;&lt;/p&gt;" style="rounded=0;whiteSpace=wrap;html=1;fontFamily=Consolas;fontSize=12;verticalAlign=top;align=left;fillColor=#cdeb8b;strokeColor=#36393d;" vertex="1" parent="1">
          <mxGeometry x="2200" y="1070" width="140" height="40" as="geometry" />
        </mxCell>
        <mxCell id="D95QP3MlJxtuGS18Q3mf-97" value="&lt;p style=&quot;margin-top: 0pt; margin-bottom: 0pt; margin-left: 0in; direction: ltr; unicode-bidi: embed; word-break: normal;&quot;&gt;untitled.m&lt;br&gt;&lt;/p&gt;" style="rounded=0;whiteSpace=wrap;html=1;fontFamily=Consolas;fontSize=12;verticalAlign=top;align=left;fillColor=#cdeb8b;strokeColor=#36393d;" vertex="1" parent="1">
          <mxGeometry x="2360" y="1070" width="80" height="40" as="geometry" />
        </mxCell>
        <mxCell id="D95QP3MlJxtuGS18Q3mf-99" value="&lt;p style=&quot;margin-top: 0pt; margin-bottom: 0pt; margin-left: 0in; direction: ltr; unicode-bidi: embed; word-break: normal;&quot;&gt;untitled2.m&lt;br&gt;&lt;/p&gt;" style="rounded=0;whiteSpace=wrap;html=1;fontFamily=Consolas;fontSize=12;verticalAlign=top;align=left;fillColor=#cdeb8b;strokeColor=#36393d;" vertex="1" parent="1">
          <mxGeometry x="2360" y="1130" width="80" height="40" as="geometry" />
        </mxCell>
        <mxCell id="D95QP3MlJxtuGS18Q3mf-101" value="&lt;p style=&quot;margin-top: 0pt; margin-bottom: 0pt; margin-left: 0in; direction: ltr; unicode-bidi: embed; word-break: normal;&quot;&gt;untitled3.m&lt;br&gt;&lt;/p&gt;" style="rounded=0;whiteSpace=wrap;html=1;fontFamily=Consolas;fontSize=12;verticalAlign=top;align=left;fillColor=#cdeb8b;strokeColor=#36393d;" vertex="1" parent="1">
          <mxGeometry x="2460" y="1130" width="80" height="40" as="geometry" />
        </mxCell>
        <mxCell id="D95QP3MlJxtuGS18Q3mf-103" value="&lt;p style=&quot;margin-top: 0pt; margin-bottom: 0pt; margin-left: 0in; direction: ltr; unicode-bidi: embed; word-break: normal;&quot;&gt;VisualizeQuat.m&lt;br&gt;&lt;/p&gt;" style="rounded=0;whiteSpace=wrap;html=1;fontFamily=Consolas;fontSize=12;verticalAlign=top;align=left;fillColor=#f8cecc;strokeColor=#b85450;" vertex="1" parent="1">
          <mxGeometry x="2080" y="280" width="110" height="40" as="geometry" />
        </mxCell>
        <mxCell id="D95QP3MlJxtuGS18Q3mf-104" value="" style="rounded=0;whiteSpace=wrap;html=1;fillColor=none;strokeColor=#00FF00;strokeWidth=4;" vertex="1" parent="1">
          <mxGeometry x="730" y="200" width="160" height="60" as="geometry" />
        </mxCell>
        <mxCell id="D95QP3MlJxtuGS18Q3mf-105" value="" style="rounded=0;whiteSpace=wrap;html=1;fillColor=none;strokeColor=#00FF00;strokeWidth=4;" vertex="1" parent="1">
          <mxGeometry x="1040" y="200" width="150" height="60" as="geometry" />
        </mxCell>
        <mxCell id="D95QP3MlJxtuGS18Q3mf-106" value="" style="rounded=0;whiteSpace=wrap;html=1;fillColor=none;strokeColor=#00FF00;strokeWidth=4;" vertex="1" parent="1">
          <mxGeometry x="1270" y="200" width="160" height="60" as="geometry" />
        </mxCell>
        <mxCell id="D95QP3MlJxtuGS18Q3mf-108" value="" style="rounded=0;whiteSpace=wrap;html=1;fillColor=none;strokeColor=#00FF00;strokeWidth=4;" vertex="1" parent="1">
          <mxGeometry x="420" y="270" width="180" height="60" as="geometry" />
        </mxCell>
        <mxCell id="D95QP3MlJxtuGS18Q3mf-109" value="" style="rounded=0;whiteSpace=wrap;html=1;fillColor=none;strokeColor=#00FF00;strokeWidth=4;" vertex="1" parent="1">
          <mxGeometry x="600" y="330" width="170" height="60" as="geometry" />
        </mxCell>
        <mxCell id="D95QP3MlJxtuGS18Q3mf-110" value="" style="rounded=0;whiteSpace=wrap;html=1;fillColor=none;strokeColor=#00FF00;strokeWidth=4;" vertex="1" parent="1">
          <mxGeometry x="1700" y="230" width="140" height="60" as="geometry" />
        </mxCell>
        <mxCell id="D95QP3MlJxtuGS18Q3mf-112" value="" style="rounded=0;whiteSpace=wrap;html=1;fillColor=none;strokeColor=#00FF00;strokeWidth=4;" vertex="1" parent="1">
          <mxGeometry x="1860" y="220" width="100" height="80" as="geometry" />
        </mxCell>
        <mxCell id="D95QP3MlJxtuGS18Q3mf-113" value="" style="rounded=0;whiteSpace=wrap;html=1;fillColor=none;strokeColor=#FFFF00;strokeWidth=4;" vertex="1" parent="1">
          <mxGeometry x="660" y="750" width="300" height="120" as="geometry" />
        </mxCell>
        <mxCell id="D95QP3MlJxtuGS18Q3mf-114" value="" style="rounded=0;whiteSpace=wrap;html=1;fillColor=none;strokeColor=#FFFF00;strokeWidth=4;" vertex="1" parent="1">
          <mxGeometry x="980" y="440" width="500" height="120" as="geometry" />
        </mxCell>
        <mxCell id="D95QP3MlJxtuGS18Q3mf-115" value="" style="rounded=0;whiteSpace=wrap;html=1;fillColor=none;strokeColor=#FFFF00;strokeWidth=4;" vertex="1" parent="1">
          <mxGeometry x="200" y="750" width="280" height="60" as="geometry" />
        </mxCell>
        <mxCell id="D95QP3MlJxtuGS18Q3mf-116" value="" style="rounded=0;whiteSpace=wrap;html=1;fillColor=none;strokeColor=#00FF00;strokeWidth=4;" vertex="1" parent="1">
          <mxGeometry x="700" y="620" width="220" height="60" as="geometry" />
        </mxCell>
      </root>
    </mxGraphModel>
  </diagram>
</mxfile>
